<mxfile host="app.diagrams.net" modified="2024-06-08T10:02:09.769Z" agent="Mozilla/5.0 (Macintosh; Intel Mac OS X 10_15_7) AppleWebKit/537.36 (KHTML, like Gecko) Chrome/125.0.0.0 Safari/537.36" etag="zxqo-A5ztabv_B38Yxeq" version="24.5.2" type="github">
  <diagram id="R2lEEEUBdFMjLlhIrx00" name="Page-1">
    <mxGraphModel dx="884" dy="623" grid="1" gridSize="10" guides="1" tooltips="1" connect="1" arrows="1" fold="1" page="1" pageScale="1" pageWidth="850" pageHeight="1100" math="0" shadow="0" extFonts="Permanent Marker^https://fonts.googleapis.com/css?family=Permanent+Marker">
      <root>
        <mxCell id="0" />
        <mxCell id="1" parent="0" />
        <mxCell id="C-vyLk0tnHw3VtMMgP7b-1" value="" style="edgeStyle=entityRelationEdgeStyle;endArrow=ERzeroToMany;startArrow=ERone;endFill=1;startFill=0;" parent="1" source="C-vyLk0tnHw3VtMMgP7b-24" target="C-vyLk0tnHw3VtMMgP7b-6" edge="1">
          <mxGeometry width="100" height="100" relative="1" as="geometry">
            <mxPoint x="380" y="990" as="sourcePoint" />
            <mxPoint x="480" y="890" as="targetPoint" />
          </mxGeometry>
        </mxCell>
        <mxCell id="C-vyLk0tnHw3VtMMgP7b-2" value="SUB ENTITY" style="shape=table;startSize=30;container=1;collapsible=1;childLayout=tableLayout;fixedRows=1;rowLines=0;fontStyle=1;align=center;resizeLast=1;opacity=50;strokeColor=#CCCCCC;textOpacity=30;" parent="1" vertex="1">
          <mxGeometry x="485" y="360" width="195" height="120" as="geometry" />
        </mxCell>
        <mxCell id="C-vyLk0tnHw3VtMMgP7b-3" value="" style="shape=partialRectangle;collapsible=0;dropTarget=0;pointerEvents=0;fillColor=none;points=[[0,0.5],[1,0.5]];portConstraint=eastwest;top=0;left=0;right=0;bottom=1;" parent="C-vyLk0tnHw3VtMMgP7b-2" vertex="1">
          <mxGeometry y="30" width="195" height="30" as="geometry" />
        </mxCell>
        <mxCell id="C-vyLk0tnHw3VtMMgP7b-4" value="PK" style="shape=partialRectangle;overflow=hidden;connectable=0;fillColor=none;top=0;left=0;bottom=0;right=0;fontStyle=1;textOpacity=30;" parent="C-vyLk0tnHw3VtMMgP7b-3" vertex="1">
          <mxGeometry width="30" height="30" as="geometry">
            <mxRectangle width="30" height="30" as="alternateBounds" />
          </mxGeometry>
        </mxCell>
        <mxCell id="C-vyLk0tnHw3VtMMgP7b-5" value="ID int NOT NULL " style="shape=partialRectangle;overflow=hidden;connectable=0;fillColor=none;top=0;left=0;bottom=0;right=0;align=left;spacingLeft=6;fontStyle=5;textOpacity=30;" parent="C-vyLk0tnHw3VtMMgP7b-3" vertex="1">
          <mxGeometry x="30" width="165" height="30" as="geometry">
            <mxRectangle width="165" height="30" as="alternateBounds" />
          </mxGeometry>
        </mxCell>
        <mxCell id="C-vyLk0tnHw3VtMMgP7b-6" value="" style="shape=partialRectangle;collapsible=0;dropTarget=0;pointerEvents=0;fillColor=none;points=[[0,0.5],[1,0.5]];portConstraint=eastwest;top=0;left=0;right=0;bottom=0;" parent="C-vyLk0tnHw3VtMMgP7b-2" vertex="1">
          <mxGeometry y="60" width="195" height="30" as="geometry" />
        </mxCell>
        <mxCell id="C-vyLk0tnHw3VtMMgP7b-7" value="FK" style="shape=partialRectangle;overflow=hidden;connectable=0;fillColor=none;top=0;left=0;bottom=0;right=0;textOpacity=30;" parent="C-vyLk0tnHw3VtMMgP7b-6" vertex="1">
          <mxGeometry width="30" height="30" as="geometry">
            <mxRectangle width="30" height="30" as="alternateBounds" />
          </mxGeometry>
        </mxCell>
        <mxCell id="C-vyLk0tnHw3VtMMgP7b-8" value="FKID int NOT NULL" style="shape=partialRectangle;overflow=hidden;connectable=0;fillColor=none;top=0;left=0;bottom=0;right=0;align=left;spacingLeft=6;fontStyle=1;textOpacity=30;" parent="C-vyLk0tnHw3VtMMgP7b-6" vertex="1">
          <mxGeometry x="30" width="165" height="30" as="geometry">
            <mxRectangle width="165" height="30" as="alternateBounds" />
          </mxGeometry>
        </mxCell>
        <mxCell id="C-vyLk0tnHw3VtMMgP7b-9" value="" style="shape=partialRectangle;collapsible=0;dropTarget=0;pointerEvents=0;fillColor=none;points=[[0,0.5],[1,0.5]];portConstraint=eastwest;top=0;left=0;right=0;bottom=0;" parent="C-vyLk0tnHw3VtMMgP7b-2" vertex="1">
          <mxGeometry y="90" width="195" height="30" as="geometry" />
        </mxCell>
        <mxCell id="C-vyLk0tnHw3VtMMgP7b-10" value="" style="shape=partialRectangle;overflow=hidden;connectable=0;fillColor=none;top=0;left=0;bottom=0;right=0;textOpacity=30;" parent="C-vyLk0tnHw3VtMMgP7b-9" vertex="1">
          <mxGeometry width="30" height="30" as="geometry">
            <mxRectangle width="30" height="30" as="alternateBounds" />
          </mxGeometry>
        </mxCell>
        <mxCell id="C-vyLk0tnHw3VtMMgP7b-11" value="COLUMNS (Value Types)" style="shape=partialRectangle;overflow=hidden;connectable=0;fillColor=none;top=0;left=0;bottom=0;right=0;align=left;spacingLeft=6;textOpacity=30;" parent="C-vyLk0tnHw3VtMMgP7b-9" vertex="1">
          <mxGeometry x="30" width="165" height="30" as="geometry">
            <mxRectangle width="165" height="30" as="alternateBounds" />
          </mxGeometry>
        </mxCell>
        <mxCell id="C-vyLk0tnHw3VtMMgP7b-23" value="ENTITY (RE)" style="shape=table;startSize=30;container=1;collapsible=1;childLayout=tableLayout;fixedRows=1;rowLines=0;fontStyle=1;align=center;resizeLast=1;fontColor=#000000;" parent="1" vertex="1">
          <mxGeometry x="160" y="390" width="200" height="100" as="geometry" />
        </mxCell>
        <mxCell id="C-vyLk0tnHw3VtMMgP7b-24" value="" style="shape=partialRectangle;collapsible=0;dropTarget=0;pointerEvents=0;fillColor=none;points=[[0,0.5],[1,0.5]];portConstraint=eastwest;top=0;left=0;right=0;bottom=1;" parent="C-vyLk0tnHw3VtMMgP7b-23" vertex="1">
          <mxGeometry y="30" width="200" height="30" as="geometry" />
        </mxCell>
        <mxCell id="C-vyLk0tnHw3VtMMgP7b-25" value="PK" style="shape=partialRectangle;overflow=hidden;connectable=0;fillColor=none;top=0;left=0;bottom=0;right=0;fontStyle=1;" parent="C-vyLk0tnHw3VtMMgP7b-24" vertex="1">
          <mxGeometry width="30" height="30" as="geometry">
            <mxRectangle width="30" height="30" as="alternateBounds" />
          </mxGeometry>
        </mxCell>
        <mxCell id="C-vyLk0tnHw3VtMMgP7b-26" value="ID int NOT NULL " style="shape=partialRectangle;overflow=hidden;connectable=0;fillColor=none;top=0;left=0;bottom=0;right=0;align=left;spacingLeft=6;fontStyle=5;" parent="C-vyLk0tnHw3VtMMgP7b-24" vertex="1">
          <mxGeometry x="30" width="170" height="30" as="geometry">
            <mxRectangle width="170" height="30" as="alternateBounds" />
          </mxGeometry>
        </mxCell>
        <mxCell id="C-vyLk0tnHw3VtMMgP7b-27" value="" style="shape=partialRectangle;collapsible=0;dropTarget=0;pointerEvents=0;fillColor=none;points=[[0,0.5],[1,0.5]];portConstraint=eastwest;top=0;left=0;right=0;bottom=0;" parent="C-vyLk0tnHw3VtMMgP7b-23" vertex="1">
          <mxGeometry y="60" width="200" height="30" as="geometry" />
        </mxCell>
        <mxCell id="C-vyLk0tnHw3VtMMgP7b-28" value="" style="shape=partialRectangle;overflow=hidden;connectable=0;fillColor=none;top=0;left=0;bottom=0;right=0;" parent="C-vyLk0tnHw3VtMMgP7b-27" vertex="1">
          <mxGeometry width="30" height="30" as="geometry">
            <mxRectangle width="30" height="30" as="alternateBounds" />
          </mxGeometry>
        </mxCell>
        <mxCell id="C-vyLk0tnHw3VtMMgP7b-29" value="COLUMNS" style="shape=partialRectangle;overflow=hidden;connectable=0;fillColor=none;top=0;left=0;bottom=0;right=0;align=left;spacingLeft=6;fontColor=#FF0000;fontStyle=1" parent="C-vyLk0tnHw3VtMMgP7b-27" vertex="1">
          <mxGeometry x="30" width="170" height="30" as="geometry">
            <mxRectangle width="170" height="30" as="alternateBounds" />
          </mxGeometry>
        </mxCell>
        <mxCell id="YahrEmIbVGKIaJTnLxun-7" value="Assets" style="childLayout=tableLayout;recursiveResize=0;strokeColor=#98bf21;fillColor=#A7C942;shadow=1;" vertex="1" parent="1">
          <mxGeometry x="160" y="90" width="520" height="210" as="geometry" />
        </mxCell>
        <mxCell id="YahrEmIbVGKIaJTnLxun-8" style="shape=tableRow;horizontal=0;startSize=0;swimlaneHead=0;swimlaneBody=0;top=0;left=0;bottom=0;right=0;dropTarget=0;collapsible=0;recursiveResize=0;expand=0;fontStyle=0;strokeColor=inherit;fillColor=#ffffff;" vertex="1" parent="YahrEmIbVGKIaJTnLxun-7">
          <mxGeometry width="520" height="50" as="geometry" />
        </mxCell>
        <mxCell id="YahrEmIbVGKIaJTnLxun-68" value="Method" style="connectable=0;recursiveResize=0;strokeColor=inherit;fillColor=#A7C942;align=center;fontStyle=1;fontColor=#FFFFFF;html=1;" vertex="1" parent="YahrEmIbVGKIaJTnLxun-8">
          <mxGeometry width="74" height="50" as="geometry">
            <mxRectangle width="74" height="50" as="alternateBounds" />
          </mxGeometry>
        </mxCell>
        <mxCell id="YahrEmIbVGKIaJTnLxun-57" value="Name" style="connectable=0;recursiveResize=0;strokeColor=inherit;fillColor=#A7C942;align=center;fontStyle=1;fontColor=#FFFFFF;html=1;" vertex="1" parent="YahrEmIbVGKIaJTnLxun-8">
          <mxGeometry x="74" width="49" height="50" as="geometry">
            <mxRectangle width="49" height="50" as="alternateBounds" />
          </mxGeometry>
        </mxCell>
        <mxCell id="YahrEmIbVGKIaJTnLxun-9" value="Param&lt;div&gt;(Query / Route)&lt;/div&gt;" style="connectable=0;recursiveResize=0;strokeColor=inherit;fillColor=#A7C942;align=center;fontStyle=1;fontColor=#FFFFFF;html=1;" vertex="1" parent="YahrEmIbVGKIaJTnLxun-8">
          <mxGeometry x="123" width="138" height="50" as="geometry">
            <mxRectangle width="138" height="50" as="alternateBounds" />
          </mxGeometry>
        </mxCell>
        <mxCell id="YahrEmIbVGKIaJTnLxun-10" value="Payload&lt;div&gt;&lt;font color=&quot;#ff0000&quot;&gt;entity&lt;/font&gt; (PE)&lt;/div&gt;" style="connectable=0;recursiveResize=0;strokeColor=inherit;fillColor=#A7C942;align=center;fontStyle=1;fontColor=#FFFFFF;html=1;" vertex="1" parent="YahrEmIbVGKIaJTnLxun-8">
          <mxGeometry x="261" width="129" height="50" as="geometry">
            <mxRectangle width="129" height="50" as="alternateBounds" />
          </mxGeometry>
        </mxCell>
        <mxCell id="YahrEmIbVGKIaJTnLxun-11" value="Response&lt;div&gt;&lt;font color=&quot;#ff0000&quot;&gt;entity&lt;/font&gt; (RE)&lt;/div&gt;" style="connectable=0;recursiveResize=0;strokeColor=inherit;fillColor=#A7C942;align=center;fontStyle=1;fontColor=#FFFFFF;html=1;" vertex="1" parent="YahrEmIbVGKIaJTnLxun-8">
          <mxGeometry x="390" width="130" height="50" as="geometry">
            <mxRectangle width="130" height="50" as="alternateBounds" />
          </mxGeometry>
        </mxCell>
        <mxCell id="YahrEmIbVGKIaJTnLxun-12" value="" style="shape=tableRow;horizontal=0;startSize=0;swimlaneHead=0;swimlaneBody=0;top=0;left=0;bottom=0;right=0;dropTarget=0;collapsible=0;recursiveResize=0;expand=0;fontStyle=0;strokeColor=inherit;fillColor=#ffffff;" vertex="1" parent="YahrEmIbVGKIaJTnLxun-7">
          <mxGeometry y="50" width="520" height="33" as="geometry" />
        </mxCell>
        <mxCell id="YahrEmIbVGKIaJTnLxun-69" value="GET" style="connectable=0;recursiveResize=0;strokeColor=#82b366;fillColor=#d5e8d4;align=left;whiteSpace=wrap;html=1;spacingLeft=7;" vertex="1" parent="YahrEmIbVGKIaJTnLxun-12">
          <mxGeometry width="74" height="33" as="geometry">
            <mxRectangle width="74" height="33" as="alternateBounds" />
          </mxGeometry>
        </mxCell>
        <mxCell id="YahrEmIbVGKIaJTnLxun-58" value="" style="connectable=0;recursiveResize=0;strokeColor=#82b366;fillColor=#d5e8d4;align=center;whiteSpace=wrap;html=1;" vertex="1" parent="YahrEmIbVGKIaJTnLxun-12">
          <mxGeometry x="74" width="49" height="33" as="geometry">
            <mxRectangle width="49" height="33" as="alternateBounds" />
          </mxGeometry>
        </mxCell>
        <mxCell id="YahrEmIbVGKIaJTnLxun-13" value="" style="connectable=0;recursiveResize=0;strokeColor=#82b366;fillColor=#d5e8d4;align=center;whiteSpace=wrap;html=1;" vertex="1" parent="YahrEmIbVGKIaJTnLxun-12">
          <mxGeometry x="123" width="138" height="33" as="geometry">
            <mxRectangle width="138" height="33" as="alternateBounds" />
          </mxGeometry>
        </mxCell>
        <mxCell id="YahrEmIbVGKIaJTnLxun-14" value="" style="connectable=0;recursiveResize=0;strokeColor=#82b366;fillColor=#d5e8d4;align=center;whiteSpace=wrap;html=1;" vertex="1" parent="YahrEmIbVGKIaJTnLxun-12">
          <mxGeometry x="261" width="129" height="33" as="geometry">
            <mxRectangle width="129" height="33" as="alternateBounds" />
          </mxGeometry>
        </mxCell>
        <mxCell id="YahrEmIbVGKIaJTnLxun-15" value="[ RE ]" style="connectable=0;recursiveResize=0;strokeColor=#82b366;fillColor=#d5e8d4;align=center;whiteSpace=wrap;html=1;" vertex="1" parent="YahrEmIbVGKIaJTnLxun-12">
          <mxGeometry x="390" width="130" height="33" as="geometry">
            <mxRectangle width="130" height="33" as="alternateBounds" />
          </mxGeometry>
        </mxCell>
        <mxCell id="YahrEmIbVGKIaJTnLxun-16" value="" style="shape=tableRow;horizontal=0;startSize=0;swimlaneHead=0;swimlaneBody=0;top=0;left=0;bottom=0;right=0;dropTarget=0;collapsible=0;recursiveResize=0;expand=0;fontStyle=1;strokeColor=inherit;fillColor=#EAF2D3;" vertex="1" parent="YahrEmIbVGKIaJTnLxun-7">
          <mxGeometry y="83" width="520" height="31" as="geometry" />
        </mxCell>
        <mxCell id="YahrEmIbVGKIaJTnLxun-70" value="GET" style="connectable=0;recursiveResize=0;strokeColor=#82b366;fillColor=#d5e8d4;whiteSpace=wrap;html=1;align=left;spacingLeft=7;" vertex="1" parent="YahrEmIbVGKIaJTnLxun-16">
          <mxGeometry width="74" height="31" as="geometry">
            <mxRectangle width="74" height="31" as="alternateBounds" />
          </mxGeometry>
        </mxCell>
        <mxCell id="YahrEmIbVGKIaJTnLxun-59" value="" style="connectable=0;recursiveResize=0;strokeColor=#82b366;fillColor=#d5e8d4;whiteSpace=wrap;html=1;" vertex="1" parent="YahrEmIbVGKIaJTnLxun-16">
          <mxGeometry x="74" width="49" height="31" as="geometry">
            <mxRectangle width="49" height="31" as="alternateBounds" />
          </mxGeometry>
        </mxCell>
        <mxCell id="YahrEmIbVGKIaJTnLxun-17" value="ID" style="connectable=0;recursiveResize=0;strokeColor=#82b366;fillColor=#d5e8d4;whiteSpace=wrap;html=1;" vertex="1" parent="YahrEmIbVGKIaJTnLxun-16">
          <mxGeometry x="123" width="138" height="31" as="geometry">
            <mxRectangle width="138" height="31" as="alternateBounds" />
          </mxGeometry>
        </mxCell>
        <mxCell id="YahrEmIbVGKIaJTnLxun-18" value="" style="connectable=0;recursiveResize=0;strokeColor=#82b366;fillColor=#d5e8d4;whiteSpace=wrap;html=1;" vertex="1" parent="YahrEmIbVGKIaJTnLxun-16">
          <mxGeometry x="261" width="129" height="31" as="geometry">
            <mxRectangle width="129" height="31" as="alternateBounds" />
          </mxGeometry>
        </mxCell>
        <mxCell id="YahrEmIbVGKIaJTnLxun-19" value="RE" style="connectable=0;recursiveResize=0;strokeColor=#82b366;fillColor=#d5e8d4;whiteSpace=wrap;html=1;" vertex="1" parent="YahrEmIbVGKIaJTnLxun-16">
          <mxGeometry x="390" width="130" height="31" as="geometry">
            <mxRectangle width="130" height="31" as="alternateBounds" />
          </mxGeometry>
        </mxCell>
        <mxCell id="YahrEmIbVGKIaJTnLxun-20" value="" style="shape=tableRow;horizontal=0;startSize=0;swimlaneHead=0;swimlaneBody=0;top=0;left=0;bottom=0;right=0;dropTarget=0;collapsible=0;recursiveResize=0;expand=0;fontStyle=0;strokeColor=inherit;fillColor=#ffffff;" vertex="1" parent="YahrEmIbVGKIaJTnLxun-7">
          <mxGeometry y="114" width="520" height="33" as="geometry" />
        </mxCell>
        <mxCell id="YahrEmIbVGKIaJTnLxun-71" value="POST" style="connectable=0;recursiveResize=0;strokeColor=#d6b656;fillColor=#fff2cc;fontStyle=0;align=left;whiteSpace=wrap;html=1;spacingLeft=7;" vertex="1" parent="YahrEmIbVGKIaJTnLxun-20">
          <mxGeometry width="74" height="33" as="geometry">
            <mxRectangle width="74" height="33" as="alternateBounds" />
          </mxGeometry>
        </mxCell>
        <mxCell id="YahrEmIbVGKIaJTnLxun-60" style="connectable=0;recursiveResize=0;strokeColor=#d6b656;fillColor=#fff2cc;fontStyle=0;align=center;whiteSpace=wrap;html=1;" vertex="1" parent="YahrEmIbVGKIaJTnLxun-20">
          <mxGeometry x="74" width="49" height="33" as="geometry">
            <mxRectangle width="49" height="33" as="alternateBounds" />
          </mxGeometry>
        </mxCell>
        <mxCell id="YahrEmIbVGKIaJTnLxun-21" value="ID" style="connectable=0;recursiveResize=0;strokeColor=#d6b656;fillColor=#fff2cc;fontStyle=0;align=center;whiteSpace=wrap;html=1;" vertex="1" parent="YahrEmIbVGKIaJTnLxun-20">
          <mxGeometry x="123" width="138" height="33" as="geometry">
            <mxRectangle width="138" height="33" as="alternateBounds" />
          </mxGeometry>
        </mxCell>
        <mxCell id="YahrEmIbVGKIaJTnLxun-22" value="PE" style="connectable=0;recursiveResize=0;strokeColor=#d6b656;fillColor=#fff2cc;fontStyle=0;align=center;whiteSpace=wrap;html=1;" vertex="1" parent="YahrEmIbVGKIaJTnLxun-20">
          <mxGeometry x="261" width="129" height="33" as="geometry">
            <mxRectangle width="129" height="33" as="alternateBounds" />
          </mxGeometry>
        </mxCell>
        <mxCell id="YahrEmIbVGKIaJTnLxun-23" value="RE" style="connectable=0;recursiveResize=0;strokeColor=#d6b656;fillColor=#fff2cc;fontStyle=0;align=center;whiteSpace=wrap;html=1;" vertex="1" parent="YahrEmIbVGKIaJTnLxun-20">
          <mxGeometry x="390" width="130" height="33" as="geometry">
            <mxRectangle width="130" height="33" as="alternateBounds" />
          </mxGeometry>
        </mxCell>
        <mxCell id="YahrEmIbVGKIaJTnLxun-24" value="" style="shape=tableRow;horizontal=0;startSize=0;swimlaneHead=0;swimlaneBody=0;top=0;left=0;bottom=0;right=0;dropTarget=0;collapsible=0;recursiveResize=0;expand=0;fontStyle=1;strokeColor=inherit;fillColor=#EAF2D3;" vertex="1" parent="YahrEmIbVGKIaJTnLxun-7">
          <mxGeometry y="147" width="520" height="32" as="geometry" />
        </mxCell>
        <mxCell id="YahrEmIbVGKIaJTnLxun-72" value="PUT" style="connectable=0;recursiveResize=0;strokeColor=#d6b656;fillColor=#fff2cc;whiteSpace=wrap;html=1;align=left;spacingLeft=7;" vertex="1" parent="YahrEmIbVGKIaJTnLxun-24">
          <mxGeometry width="74" height="32" as="geometry">
            <mxRectangle width="74" height="32" as="alternateBounds" />
          </mxGeometry>
        </mxCell>
        <mxCell id="YahrEmIbVGKIaJTnLxun-61" style="connectable=0;recursiveResize=0;strokeColor=#d6b656;fillColor=#fff2cc;whiteSpace=wrap;html=1;" vertex="1" parent="YahrEmIbVGKIaJTnLxun-24">
          <mxGeometry x="74" width="49" height="32" as="geometry">
            <mxRectangle width="49" height="32" as="alternateBounds" />
          </mxGeometry>
        </mxCell>
        <mxCell id="YahrEmIbVGKIaJTnLxun-25" value="ID" style="connectable=0;recursiveResize=0;strokeColor=#d6b656;fillColor=#fff2cc;whiteSpace=wrap;html=1;" vertex="1" parent="YahrEmIbVGKIaJTnLxun-24">
          <mxGeometry x="123" width="138" height="32" as="geometry">
            <mxRectangle width="138" height="32" as="alternateBounds" />
          </mxGeometry>
        </mxCell>
        <mxCell id="YahrEmIbVGKIaJTnLxun-26" value="PE" style="connectable=0;recursiveResize=0;strokeColor=#d6b656;fillColor=#fff2cc;whiteSpace=wrap;html=1;" vertex="1" parent="YahrEmIbVGKIaJTnLxun-24">
          <mxGeometry x="261" width="129" height="32" as="geometry">
            <mxRectangle width="129" height="32" as="alternateBounds" />
          </mxGeometry>
        </mxCell>
        <mxCell id="YahrEmIbVGKIaJTnLxun-27" value="RE" style="connectable=0;recursiveResize=0;strokeColor=#d6b656;fillColor=#fff2cc;whiteSpace=wrap;html=1;" vertex="1" parent="YahrEmIbVGKIaJTnLxun-24">
          <mxGeometry x="390" width="130" height="32" as="geometry">
            <mxRectangle width="130" height="32" as="alternateBounds" />
          </mxGeometry>
        </mxCell>
        <mxCell id="YahrEmIbVGKIaJTnLxun-62" style="shape=tableRow;horizontal=0;startSize=0;swimlaneHead=0;swimlaneBody=0;top=0;left=0;bottom=0;right=0;dropTarget=0;collapsible=0;recursiveResize=0;expand=0;fontStyle=1;strokeColor=inherit;fillColor=#EAF2D3;" vertex="1" parent="YahrEmIbVGKIaJTnLxun-7">
          <mxGeometry y="179" width="520" height="31" as="geometry" />
        </mxCell>
        <mxCell id="YahrEmIbVGKIaJTnLxun-73" value="DELETE" style="connectable=0;recursiveResize=0;whiteSpace=wrap;html=1;align=left;spacingLeft=7;fillColor=#fff2cc;strokeColor=#d6b656;" vertex="1" parent="YahrEmIbVGKIaJTnLxun-62">
          <mxGeometry width="74" height="31" as="geometry">
            <mxRectangle width="74" height="31" as="alternateBounds" />
          </mxGeometry>
        </mxCell>
        <mxCell id="YahrEmIbVGKIaJTnLxun-63" style="connectable=0;recursiveResize=0;whiteSpace=wrap;html=1;fillColor=#fff2cc;strokeColor=#d6b656;" vertex="1" parent="YahrEmIbVGKIaJTnLxun-62">
          <mxGeometry x="74" width="49" height="31" as="geometry">
            <mxRectangle width="49" height="31" as="alternateBounds" />
          </mxGeometry>
        </mxCell>
        <mxCell id="YahrEmIbVGKIaJTnLxun-64" value="ID" style="connectable=0;recursiveResize=0;whiteSpace=wrap;html=1;fillColor=#fff2cc;strokeColor=#d6b656;" vertex="1" parent="YahrEmIbVGKIaJTnLxun-62">
          <mxGeometry x="123" width="138" height="31" as="geometry">
            <mxRectangle width="138" height="31" as="alternateBounds" />
          </mxGeometry>
        </mxCell>
        <mxCell id="YahrEmIbVGKIaJTnLxun-65" style="connectable=0;recursiveResize=0;whiteSpace=wrap;html=1;fillColor=#fff2cc;strokeColor=#d6b656;" vertex="1" parent="YahrEmIbVGKIaJTnLxun-62">
          <mxGeometry x="261" width="129" height="31" as="geometry">
            <mxRectangle width="129" height="31" as="alternateBounds" />
          </mxGeometry>
        </mxCell>
        <mxCell id="YahrEmIbVGKIaJTnLxun-66" style="connectable=0;recursiveResize=0;whiteSpace=wrap;html=1;fillColor=#fff2cc;strokeColor=#d6b656;" vertex="1" parent="YahrEmIbVGKIaJTnLxun-62">
          <mxGeometry x="390" width="130" height="31" as="geometry">
            <mxRectangle width="130" height="31" as="alternateBounds" />
          </mxGeometry>
        </mxCell>
        <mxCell id="YahrEmIbVGKIaJTnLxun-74" value="ENTITY (PE)" style="shape=table;startSize=30;container=1;collapsible=1;childLayout=tableLayout;fixedRows=1;rowLines=0;fontStyle=1;align=center;resizeLast=1;fontColor=#000000;" vertex="1" parent="1">
          <mxGeometry x="160" y="500" width="200" height="70" as="geometry" />
        </mxCell>
        <mxCell id="YahrEmIbVGKIaJTnLxun-78" value="" style="shape=partialRectangle;collapsible=0;dropTarget=0;pointerEvents=0;fillColor=none;points=[[0,0.5],[1,0.5]];portConstraint=eastwest;top=0;left=0;right=0;bottom=0;" vertex="1" parent="YahrEmIbVGKIaJTnLxun-74">
          <mxGeometry y="30" width="200" height="30" as="geometry" />
        </mxCell>
        <mxCell id="YahrEmIbVGKIaJTnLxun-79" value="" style="shape=partialRectangle;overflow=hidden;connectable=0;fillColor=none;top=0;left=0;bottom=0;right=0;" vertex="1" parent="YahrEmIbVGKIaJTnLxun-78">
          <mxGeometry width="30" height="30" as="geometry">
            <mxRectangle width="30" height="30" as="alternateBounds" />
          </mxGeometry>
        </mxCell>
        <mxCell id="YahrEmIbVGKIaJTnLxun-80" value="COLUMNS" style="shape=partialRectangle;overflow=hidden;connectable=0;fillColor=none;top=0;left=0;bottom=0;right=0;align=left;spacingLeft=6;fontColor=#FF0000;fontStyle=1" vertex="1" parent="YahrEmIbVGKIaJTnLxun-78">
          <mxGeometry x="30" width="170" height="30" as="geometry">
            <mxRectangle width="170" height="30" as="alternateBounds" />
          </mxGeometry>
        </mxCell>
        <mxCell id="YahrEmIbVGKIaJTnLxun-81" value="API /&amp;nbsp;&lt;font color=&quot;#ff0000&quot;&gt;entity&lt;/font&gt;" style="text;strokeColor=none;fillColor=none;html=1;fontSize=24;fontStyle=1;verticalAlign=middle;align=center;" vertex="1" parent="1">
          <mxGeometry x="170" y="40" width="100" height="40" as="geometry" />
        </mxCell>
        <mxCell id="YahrEmIbVGKIaJTnLxun-82" value="ORM /&amp;nbsp;&lt;font color=&quot;#ff0000&quot;&gt;entity&lt;/font&gt;" style="text;strokeColor=none;fillColor=none;html=1;fontSize=24;fontStyle=1;verticalAlign=middle;align=center;" vertex="1" parent="1">
          <mxGeometry x="180" y="340" width="100" height="40" as="geometry" />
        </mxCell>
        <UserObject label="&lt;b&gt;Value Types&lt;/b&gt;" placeholders="1" name="Variable" id="YahrEmIbVGKIaJTnLxun-83">
          <mxCell style="text;html=1;strokeColor=none;fillColor=none;align=center;verticalAlign=middle;whiteSpace=wrap;overflow=hidden;fontColor=#CCCCCC;" vertex="1" parent="1">
            <mxGeometry x="264" y="456" width="80" height="20" as="geometry" />
          </mxCell>
        </UserObject>
        <UserObject label="&lt;b&gt;Value Types&lt;/b&gt;" placeholders="1" name="Variable" id="YahrEmIbVGKIaJTnLxun-84">
          <mxCell style="text;html=1;strokeColor=none;fillColor=none;align=center;verticalAlign=middle;whiteSpace=wrap;overflow=hidden;fontColor=#CCCCCC;" vertex="1" parent="1">
            <mxGeometry x="262" y="535" width="80" height="20" as="geometry" />
          </mxCell>
        </UserObject>
        <mxCell id="YahrEmIbVGKIaJTnLxun-85" value="VIEW /&amp;nbsp;&lt;font color=&quot;#ff0000&quot;&gt;entity&lt;/font&gt;" style="text;strokeColor=none;fillColor=none;html=1;fontSize=24;fontStyle=1;verticalAlign=middle;align=center;" vertex="1" parent="1">
          <mxGeometry x="180" y="610" width="100" height="40" as="geometry" />
        </mxCell>
      </root>
    </mxGraphModel>
  </diagram>
</mxfile>
